<?xml version="1.0" encoding="UTF-8"?>
<svg id="Calque_2" data-name="Calque 2" xmlns="http://www.w3.org/2000/svg" width="111.85mm" height="136.7mm" viewBox="0 0 317.04 387.5">
  <g id="Calque_1-2" data-name="Calque 1">
    <g>
      <polygon points="219.3 285.23 255.1 387.5 61.93 387.5 97.73 285.23 0 0 317.04 0 219.3 285.23" fill="#7d273f"/>
      <path d="M219.45,285.7l-61.08-2.27c6.22-.29,12.57-.61,18.35-2.92s10.98-7.03,12.14-13.14c.86-4.49-.66-9.37-3.92-12.58s-8.16-4.66-12.63-3.74c-6.14,1.27-10.8,6.61-12.97,12.49s-2.27,12.3-2.29,18.57c-.79-6.74-1.62-13.61-4.43-19.78s-7.98-11.67-14.61-13.11c-6.63-1.44-14.49,2.33-16.06,8.93-1.57,6.58,3.27,13.16,9.09,16.6,5.82,3.44,12.63,4.76,18.8,7.54,11.95,5.39,21.15,16.52,24.19,29.27" fill="none" stroke="#ec668f" stroke-linecap="round" stroke-miterlimit="10" stroke-width="7"/>
      <path d="M97.67,283.16c18.27-.69,36.54-1.38,54.81-2.07,2.38-.09,5.55.45,5.81,2.82.15,1.39-.9,2.6-1.88,3.6-4.38,4.5-8.75,8.99-13.13,13.49" fill="none" stroke="#ec668f" stroke-linecap="round" stroke-miterlimit="10" stroke-width="7"/>
    </g>
  </g>
</svg>