<?xml version="1.0" encoding="UTF-8"?>
<svg id="Calque_2" data-name="Calque 2" xmlns="http://www.w3.org/2000/svg" viewBox="0 0 421.95 385.33">
  <defs>
    <style>
      .cls-1 {
        fill: #7d273f;
      }
    </style>
  </defs>
  <g id="Calque_1-2" data-name="Calque 1">
    <path class="cls-1" d="M44.83,233.25c19.61,22.32,40.76,39.86,62.51,59.34l103.55,92.74,101.64-90.99c22.06-19.75,43.75-37.73,63.24-59.61,30.84-31.9,44.71-71.82,46.1-115.83,1.16-36.59-10.13-70.94-39.1-94.36-39.83-32.21-96.45-32.62-137.24-1.65-14.16,10.75-24.55,23.16-34.57,38.39-9.49-14.46-19.2-26.14-32.36-36.66-41.61-33.24-100.99-32.92-141.57,1.67C9.54,49.72-1.09,83.33.09,118.86c1.43,43.09,14.34,82.22,44.74,114.39Z"/>
  </g>
</svg>