<?xml version="1.0" encoding="UTF-8"?>
<svg id="Calque_2" data-name="Calque 2" xmlns="http://www.w3.org/2000/svg" viewBox="0 0 83.77 481.45">
  <defs>
    <style>
      .cls-1 {
        fill: none;
        stroke: #83be55;
        stroke-linecap: round;
        stroke-miterlimit: 10;
        stroke-width: 7px;
      }

      .cls-2 {
        fill: #7d273f;
      }

      .cls-3 {
        fill: #ec668f;
      }
    </style>
  </defs>
  <g id="Calque_1-2" data-name="Calque 1">
    <g>
      <path class="cls-1" d="M41.17,61.82c12.35,138.35,18.68,277.23,18.96,416.13"/>
      <g>
        <path class="cls-3" d="M45.38.91c-2.21-1.23-4.89-1.19-7.12.01-2.37,1.28-4.96,2.94-7.56,5.08-8.25,6.78-12.28,14.79-14.15,19.4l25.33,34.23,23.28-35.83c-1.43-3.74-4.42-10.06-10.5-15.98-3.22-3.13-6.48-5.35-9.29-6.92Z"/>
        <path class="cls-2" d="M73.38,74.03c-9.56,11.5-24.78,12.02-31.49,12.33-6.72-.31-21.95-.84-31.5-12.33C-3.18,57.7-1.65,24.5,4.74,5.16c.7-2.11,3.28-2.92,5.02-1.54,3.13,2.49,6.36,5.4,9.53,8.8,14.8,15.84,20.33,33.67,22.6,44.27,2.27-10.6,7.79-28.43,22.59-44.27,3.17-3.4,6.4-6.31,9.53-8.8,1.74-1.38,4.32-.57,5.02,1.54,6.39,19.34,7.92,52.54-5.65,68.87Z"/>
      </g>
    </g>
  </g>
</svg>