<?xml version="1.0" encoding="UTF-8"?>
<svg id="Calque_2" data-name="Calque 2" xmlns="http://www.w3.org/2000/svg" viewBox="0 0 172.04 494.88">
  <defs>
    <style>
      .cls-1 {
        fill: none;
        stroke: #83be55;
        stroke-width: 7px;
      }

      .cls-1, .cls-2, .cls-3 {
        stroke-linecap: round;
        stroke-miterlimit: 10;
      }

      .cls-2 {
        stroke-width: 3px;
      }

      .cls-2, .cls-3 {
        fill: #f3912a;
        stroke: #f5bdcc;
      }

      .cls-3 {
        stroke-width: 2px;
      }
    </style>
  </defs>
  <g id="Calque_1-2" data-name="Calque 1">
    <g>
      <path class="cls-1" d="M153.47,491.38c16.82-26.54,17.98-60.49,11.16-91.16-6.82-30.67-20.84-59.16-32.91-88.18-27.83-66.91-45.64-137.98-52.65-210.11"/>
      <g>
        <g>
          <path class="cls-3" d="M53.02,8.54c-3.87-2.92-8.31-.95-8.63,3.92s-.39,11.09.14,17.94c.74,9.67,2.43,18.22,4.09,24.85l32.9-14.54c-3.49-5.68-8.86-13.49-16.27-21.23-4.39-4.59-8.56-8.16-12.23-10.94Z"/>
          <path class="cls-3" d="M28.12,23.72c-4.69-1.22-8.04,2.3-6.47,6.92,1.64,4.83,3.89,10.4,6.99,16.52,4.39,8.65,9.22,15.9,13.28,21.39l24.84-26.02c-5.4-3.91-13.35-9.07-23.15-13.39-5.81-2.56-11.03-4.27-15.49-5.42Z"/>
          <path class="cls-3" d="M10.92,47.27c-4.8.67-6.55,5.2-3.33,8.87,3.36,3.84,7.57,8.12,12.78,12.59,7.36,6.31,14.6,11.16,20.46,14.68l12.99-33.55c-6.48-1.55-15.81-3.27-26.51-3.51-6.35-.14-11.82.28-16.38.92Z"/>
          <path class="cls-3" d="M4.05,75.61c-4.18,2.46-4.06,7.31.32,9.47,4.58,2.26,10.1,4.6,16.62,6.74,9.22,3.01,17.76,4.72,24.52,5.73l-.84-35.96c-6.58,1.05-15.86,3.03-25.84,6.91-5.92,2.3-10.82,4.78-14.79,7.12Z"/>
          <path class="cls-3" d="M8.54,104.42c-2.92,3.87-.95,8.31,3.92,8.63,5.09.33,11.09.39,17.94-.14,9.67-.74,18.22-2.43,24.85-4.09l-14.54-32.9c-5.68,3.49-13.49,8.86-21.23,16.27-4.59,4.39-8.16,8.56-10.94,12.23Z"/>
          <path class="cls-3" d="M23.72,129.32c-1.22,4.69,2.3,8.04,6.92,6.47,4.83-1.64,10.4-3.89,16.52-6.99,8.65-4.39,15.9-9.22,21.39-13.28l-26.02-24.84c-3.91,5.4-9.07,13.35-13.39,23.15-2.56,5.81-4.27,11.03-5.42,15.49Z"/>
          <path class="cls-3" d="M47.27,146.52c.67,4.8,5.2,6.55,8.87,3.33,3.84-3.36,8.12-7.57,12.59-12.78,6.31-7.36,11.16-14.6,14.68-20.46l-33.55-12.99c-1.55,6.48-3.27,15.81-3.51,26.51-.14,6.35.28,11.82.92,16.38Z"/>
          <path class="cls-3" d="M75.61,153.39c2.46,4.18,7.31,4.06,9.47-.32,2.26-4.58,4.6-10.1,6.74-16.62,3.01-9.22,4.72-17.76,5.73-24.52l-35.96.84c1.05,6.58,3.03,15.86,6.91,25.84,2.3,5.92,4.78,10.82,7.12,14.79Z"/>
          <path class="cls-3" d="M104.42,148.89c3.87,2.92,8.31.95,8.63-3.92.33-5.09.39-11.09-.14-17.94-.74-9.67-2.43-18.22-4.09-24.85l-32.9,14.54c3.49,5.68,8.86,13.49,16.27,21.23,4.39,4.59,8.56,8.16,12.23,10.94Z"/>
          <path class="cls-3" d="M129.32,133.72c4.69,1.22,8.04-2.3,6.47-6.92-1.64-4.83-3.89-10.4-6.99-16.52-4.39-8.65-9.22-15.9-13.28-21.39l-24.84,26.02c5.4,3.91,13.35,9.07,23.15,13.39,5.81,2.56,11.03,4.27,15.49,5.42Z"/>
          <path class="cls-3" d="M146.52,110.17c4.8-.67,6.55-5.2,3.33-8.87-3.36-3.84-7.57-8.12-12.78-12.59-7.36-6.31-14.6-11.16-20.46-14.68l-12.99,33.55c6.48,1.55,15.81,3.27,26.51,3.51,6.35.14,11.82-.28,16.38-.92Z"/>
          <path class="cls-3" d="M153.39,81.83c4.18-2.46,4.06-7.31-.32-9.47-4.58-2.26-10.1-4.6-16.62-6.74-9.22-3.01-17.76-4.72-24.52-5.73l.84,35.96c6.58-1.05,15.86-3.03,25.84-6.91,5.92-2.3,10.82-4.78,14.79-7.12Z"/>
          <path class="cls-3" d="M148.89,53.02c2.92-3.87.95-8.31-3.92-8.63-5.09-.33-11.09-.39-17.94.14-9.67.74-18.22,2.43-24.85,4.09l14.54,32.9c5.68-3.49,13.49-8.86,21.23-16.27,4.59-4.39,8.16-8.56,10.94-12.23Z"/>
          <path class="cls-3" d="M133.72,28.12c1.22-4.69-2.3-8.04-6.92-6.47-4.83,1.64-10.4,3.89-16.52,6.99-8.65,4.39-15.9,9.22-21.39,13.28l26.02,24.84c3.91-5.4,9.07-13.35,13.39-23.15,2.56-5.81,4.27-11.03,5.42-15.49Z"/>
          <path class="cls-3" d="M110.17,10.92c-.67-4.8-5.2-6.55-8.87-3.33-3.84,3.36-8.12,7.57-12.59,12.78-6.31,7.36-11.16,14.6-14.68,20.46l33.55,12.99c1.55-6.48,3.27-15.81,3.51-26.51.14-6.35-.28-11.82-.92-16.38Z"/>
          <path class="cls-3" d="M81.83,4.05c-2.46-4.18-7.31-4.06-9.47.32-2.26,4.58-4.6,10.1-6.74,16.62-3.01,9.22-4.72,17.76-5.73,24.52l35.96-.84c-1.05-6.58-3.03-15.86-6.91-25.84-2.3-5.92-4.78-10.82-7.12-14.79Z"/>
          <path class="cls-3" d="M39.82,14.91c-4.36-2.11-8.33.69-7.7,5.53.67,5.06,1.78,10.96,3.64,17.57,2.62,9.34,5.94,17.39,8.85,23.57l29.44-20.68c-4.53-4.89-11.32-11.5-20.1-17.65-5.2-3.64-9.98-6.34-14.13-8.34Z"/>
          <path class="cls-3" d="M6.09,61.1c-4.58,1.59-5.41,6.38-1.54,9.35,4.05,3.11,9.01,6.49,14.99,9.85,8.45,4.75,16.5,8.1,22.93,10.41l6.19-35.43c-6.66-.25-16.14-.13-26.69,1.73-6.25,1.1-11.54,2.58-15.89,4.09Z"/>
          <path class="cls-3" d="M14.91,117.62c-2.11,4.36.69,8.33,5.53,7.7,5.06-.67,10.96-1.78,17.57-3.64,9.34-2.62,17.39-5.94,23.57-8.85l-20.68-29.44c-4.89,4.53-11.5,11.32-17.65,20.1-3.64,5.2-6.34,9.98-8.34,14.13Z"/>
          <path class="cls-3" d="M61.1,151.35c1.59,4.58,6.38,5.41,9.35,1.54,3.11-4.05,6.49-9.01,9.85-14.99,4.75-8.45,8.1-16.5,10.41-22.93l-35.43-6.19c-.25,6.66-.13,16.14,1.73,26.69,1.1,6.25,2.58,11.54,4.09,15.89Z"/>
          <path class="cls-3" d="M117.62,142.53c4.36,2.11,8.33-.69,7.7-5.53-.67-5.06-1.78-10.96-3.64-17.57-2.62-9.34-5.94-17.39-8.85-23.57l-29.44,20.68c4.53,4.89,11.32,11.5,20.1,17.65,5.2,3.64,9.98,6.34,14.13,8.34Z"/>
          <path class="cls-3" d="M151.35,96.34c4.58-1.59,5.41-6.38,1.54-9.35-4.05-3.11-9.01-6.49-14.99-9.85-8.45-4.75-16.5-8.1-22.93-10.41l-6.19,35.43c6.66.25,16.14.13,26.69-1.73,6.25-1.1,11.54-2.58,15.89-4.09Z"/>
          <path class="cls-3" d="M142.53,39.82c2.11-4.36-.69-8.33-5.53-7.7-5.06.67-10.96,1.78-17.57,3.64-9.34,2.62-17.39,5.94-23.57,8.85l20.68,29.44c4.89-4.53,11.5-11.32,17.65-20.1,3.64-5.2,6.34-9.98,8.34-14.13Z"/>
          <path class="cls-3" d="M96.34,6.09c-1.59-4.58-6.38-5.41-9.35-1.54-3.11,4.05-6.49,9.01-9.85,14.99-4.75,8.45-8.1,16.5-10.41,22.93l35.43,6.19c.25-6.66.13-16.14-1.73-26.69-1.1-6.25-2.58-11.54-4.09-15.89Z"/>
          <path class="cls-3" d="M67.2,4.88c-3.22-3.62-7.96-2.55-9.23,2.16s-2.55,10.81-3.36,17.62c-1.16,9.63-1.17,18.34-.84,25.17l35.11-7.84c-2.32-6.25-6.06-14.96-11.81-23.99-3.41-5.35-6.8-9.68-9.86-13.11Z"/>
          <path class="cls-3" d="M18.36,34.65c-4.84-.28-7.44,3.83-5,8.05,2.55,4.42,5.84,9.44,10.08,14.84,5.99,7.63,12.14,13.8,17.2,18.39l19.28-30.37c-6.05-2.78-14.86-6.29-25.32-8.61-6.2-1.37-11.65-2.03-16.25-2.3Z"/>
          <path class="cls-3" d="M4.88,90.24c-3.62,3.22-2.55,7.96,2.16,9.23,4.93,1.32,10.81,2.55,17.62,3.36,9.63,1.16,18.34,1.17,25.17.84l-7.84-35.11c-6.25,2.32-14.96,6.06-23.99,11.81-5.35,3.41-9.68,6.8-13.11,9.86Z"/>
          <path class="cls-3" d="M34.65,139.08c-.28,4.84,3.83,7.44,8.05,5,4.42-2.55,9.44-5.84,14.84-10.08,7.63-5.99,13.8-12.14,18.39-17.2l-30.37-19.28c-2.78,6.05-6.29,14.86-8.61,25.32-1.37,6.2-2.03,11.65-2.3,16.25Z"/>
          <path class="cls-3" d="M90.24,152.56c3.22,3.62,7.96,2.55,9.23-2.16,1.32-4.93,2.55-10.81,3.36-17.62,1.16-9.63,1.17-18.34.84-25.17l-35.11,7.84c2.32,6.25,6.06,14.96,11.81,23.99,3.41,5.35,6.8,9.68,9.86,13.11Z"/>
          <path class="cls-3" d="M139.08,122.79c4.84.28,7.44-3.83,5-8.05-2.55-4.42-5.84-9.44-10.08-14.84-5.99-7.63-12.14-13.8-17.2-18.39l-19.28,30.37c6.05,2.78,14.86,6.29,25.32,8.61,6.2,1.37,11.65,2.03,16.25,2.3Z"/>
          <path class="cls-3" d="M152.56,67.2c3.62-3.22,2.55-7.96-2.16-9.23-4.93-1.32-10.81-2.55-17.62-3.36-9.63-1.16-18.34-1.17-25.17-.84l7.84,35.11c6.25-2.32,14.96-6.06,23.99-11.81,5.35-3.41,9.68-6.8,13.11-9.86Z"/>
          <path class="cls-3" d="M122.79,18.36c.28-4.84-3.83-7.44-8.05-5-4.42,2.55-9.44,5.84-14.84,10.08-7.63,5.99-13.8,12.14-18.39,17.2l30.37,19.28c2.78-6.05,6.29-14.86,8.61-25.32,1.37-6.2,2.03-11.65,2.3-16.25Z"/>
        </g>
        <g>
          <path class="cls-3" d="M71.59,22.48c-3.22-3.62-7.96-2.55-9.23,2.16-1.32,4.93-2.55,10.81-3.36,17.62-1.16,9.63-1.17,18.34-.84,25.17l35.11-7.84c-2.32-6.25-6.06-14.96-11.81-23.99-3.41-5.35-6.8-9.68-9.86-13.11Z"/>
          <path class="cls-3" d="M33.91,43.99c-4.84-.28-7.44,3.83-5,8.05,2.55,4.42,5.84,9.44,10.08,14.84,5.99,7.63,12.14,13.8,17.2,18.39l19.28-30.37c-6.05-2.78-14.86-6.29-25.32-8.61-6.2-1.37-11.65-2.03-16.25-2.3Z"/>
          <path class="cls-3" d="M22.48,85.85c-3.62,3.22-2.55,7.96,2.16,9.23,4.93,1.32,10.81,2.55,17.62,3.36,9.63,1.16,18.34,1.17,25.17.84l-7.84-35.11c-6.25,2.32-14.96,6.06-23.99,11.81-5.35,3.41-9.68,6.8-13.11,9.86Z"/>
          <path class="cls-3" d="M43.99,123.53c-.28,4.84,3.83,7.44,8.05,5,4.42-2.55,9.44-5.84,14.84-10.08,7.63-5.99,13.8-12.14,18.39-17.2l-30.37-19.28c-2.78,6.05-6.29,14.86-8.61,25.32-1.37,6.2-2.03,11.65-2.3,16.25Z"/>
          <path class="cls-3" d="M85.85,134.96c3.22,3.62,7.96,2.55,9.23-2.16,1.32-4.93,2.55-10.81,3.36-17.62,1.16-9.63,1.17-18.34.84-25.17l-35.11,7.84c2.32,6.25,6.06,14.96,11.81,23.99,3.41,5.35,6.8,9.68,9.86,13.11Z"/>
          <path class="cls-3" d="M123.53,113.45c4.84.28,7.44-3.83,5-8.05-2.55-4.42-5.84-9.44-10.08-14.84-5.99-7.63-12.14-13.8-17.2-18.39l-19.28,30.37c6.05,2.78,14.86,6.29,25.32,8.61,6.2,1.37,11.65,2.03,16.25,2.3Z"/>
          <path class="cls-3" d="M134.96,71.59c3.62-3.22,2.55-7.96-2.16-9.23-4.93-1.32-10.81-2.55-17.62-3.36-9.63-1.16-18.34-1.17-25.17-.84l7.84,35.11c6.25-2.32,14.96-6.06,23.99-11.81,5.35-3.41,9.68-6.8,13.11-9.86Z"/>
          <path class="cls-3" d="M113.45,33.91c.28-4.84-3.83-7.44-8.05-5-4.42,2.55-9.44,5.84-14.84,10.08-7.63,5.99-13.8,12.14-18.39,17.2l30.37,19.28c2.78-6.05,6.29-14.86,8.61-25.32,1.37-6.2,2.03-11.65,2.3-16.25Z"/>
          <path class="cls-3" d="M50.61,29.49c-4.36-2.11-8.33.69-7.7,5.53s1.78,10.96,3.64,17.57c2.62,9.34,5.94,17.39,8.85,23.57l29.44-20.68c-4.53-4.89-11.32-11.5-20.1-17.65-5.2-3.64-9.98-6.34-14.13-8.34Z"/>
          <path class="cls-3" d="M24.03,63.79c-4.58,1.59-5.41,6.38-1.54,9.35,4.05,3.11,9.01,6.49,14.99,9.85,8.45,4.75,16.5,8.1,22.93,10.41l6.19-35.43c-6.66-.25-16.14-.13-26.69,1.73-6.25,1.1-11.54,2.58-15.89,4.09Z"/>
          <path class="cls-3" d="M29.49,106.83c-2.11,4.36.69,8.33,5.53,7.7,5.06-.67,10.96-1.78,17.57-3.64,9.34-2.62,17.39-5.94,23.57-8.85l-20.68-29.44c-4.89,4.53-11.5,11.32-17.65,20.1-3.64,5.2-6.34,9.98-8.34,14.13Z"/>
          <path class="cls-3" d="M63.79,133.41c1.59,4.58,6.38,5.41,9.35,1.54,3.11-4.05,6.49-9.01,9.85-14.99,4.75-8.45,8.1-16.5,10.41-22.93l-35.43-6.19c-.25,6.66-.13,16.14,1.73,26.69,1.1,6.25,2.58,11.54,4.09,15.89Z"/>
          <path class="cls-3" d="M106.83,127.95c4.36,2.11,8.33-.69,7.7-5.53-.67-5.06-1.78-10.96-3.64-17.57-2.62-9.34-5.94-17.39-8.85-23.57l-29.44,20.68c4.53,4.89,11.32,11.5,20.1,17.65,5.2,3.64,9.98,6.34,14.13,8.34Z"/>
          <path class="cls-3" d="M133.41,93.65c4.58-1.59,5.41-6.38,1.54-9.35-4.05-3.11-9.01-6.49-14.99-9.85-8.45-4.75-16.5-8.1-22.93-10.41l-6.19,35.43c6.66.25,16.14.13,26.69-1.73,6.25-1.1,11.54-2.58,15.89-4.09Z"/>
          <path class="cls-3" d="M127.95,50.61c2.11-4.36-.69-8.33-5.53-7.7-5.06.67-10.96,1.78-17.57,3.64-9.34,2.62-17.39,5.94-23.57,8.85l20.68,29.44c4.89-4.53,11.5-11.32,17.65-20.1,3.64-5.2,6.34-9.98,8.34-14.13Z"/>
          <path class="cls-3" d="M93.65,24.03c-1.59-4.58-6.38-5.41-9.35-1.54-3.11,4.05-6.49,9.01-9.85,14.99-4.75,8.45-8.1,16.5-10.41,22.93l35.43,6.19c.25-6.66.13-16.14-1.73-26.69-1.1-6.25-2.58-11.54-4.09-15.89Z"/>
        </g>
        <g>
          <path class="cls-3" d="M73.08,35.39c-2.64-2.93-6.52-2.05-7.56,1.78-1.08,4.01-2.08,8.78-2.75,14.31-.95,7.82-.96,14.89-.69,20.43l28.75-6.48c-1.9-5.06-4.96-12.13-9.67-19.44-2.79-4.34-5.57-7.83-8.08-10.61Z"/>
          <path class="cls-3" d="M35.39,84.36c-2.93,2.64-2.05,6.52,1.78,7.56s8.78,2.08,14.31,2.75c7.82.95,14.89.96,20.43.69l-6.48-28.75c-5.06,1.9-12.13,4.96-19.44,9.67-4.34,2.79-7.83,5.57-10.61,8.08Z"/>
          <path class="cls-3" d="M84.36,122.05c2.64,2.93,6.52,2.05,7.56-1.78s2.08-8.78,2.75-14.31c.95-7.82.96-14.89.69-20.43l-28.75,6.48c1.9,5.06,4.96,12.13,9.67,19.44,2.79,4.34,5.57,7.83,8.08,10.61Z"/>
          <path class="cls-3" d="M122.05,73.08c2.93-2.64,2.05-6.52-1.78-7.56-4.01-1.08-8.78-2.08-14.31-2.75-7.82-.95-14.89-.96-20.43-.69l6.48,28.75c5.06-1.9,12.13-4.96,19.44-9.67,4.34-2.79,7.83-5.57,10.61-8.08Z"/>
          <path class="cls-3" d="M44.09,52.07c-3.94-.2-6.06,3.16-4.08,6.6,2.07,3.6,4.73,7.68,8.17,12.07,4.86,6.2,9.86,11.21,13.96,14.93l15.75-24.91c-4.92-2.24-12.08-5.07-20.59-6.91-5.04-1.09-9.47-1.6-13.22-1.79Z"/>
          <path class="cls-3" d="M52.07,113.35c-.2,3.94,3.16,6.06,6.6,4.08,3.6-2.07,7.68-4.73,12.07-8.17,6.2-4.86,11.21-9.86,14.93-13.96l-24.91-15.75c-2.24,4.92-5.07,12.08-6.91,20.59-1.09,5.04-1.6,9.47-1.79,13.22Z"/>
          <path class="cls-3" d="M113.35,105.37c3.94.2,6.06-3.16,4.08-6.6s-4.73-7.68-8.17-12.07c-4.86-6.2-9.86-11.21-13.96-14.93l-15.75,24.91c4.92,2.24,12.08,5.07,20.59,6.91,5.04,1.09,9.47,1.6,13.22,1.79Z"/>
          <path class="cls-3" d="M105.37,44.09c.2-3.94-3.16-6.06-6.6-4.08-3.6,2.07-7.68,4.73-12.07,8.17-6.2,4.86-11.21,9.86-14.93,13.96l24.91,15.75c2.24-4.92,5.07-12.08,6.91-20.59,1.09-5.04,1.6-9.47,1.79-13.22Z"/>
        </g>
        <circle class="cls-2" cx="78.72" cy="78.72" r="21.02"/>
      </g>
    </g>
  </g>
</svg>