<?xml version="1.0" encoding="UTF-8"?>
<svg id="Calque_2" data-name="Calque 2" xmlns="http://www.w3.org/2000/svg" viewBox="0 0 156.54 499.42">
  <defs>
    <style>
      .cls-1 {
        fill: none;
        stroke: #83be55;
        stroke-width: 7px;
      }

      .cls-1, .cls-2 {
        stroke-linecap: round;
        stroke-miterlimit: 10;
      }

      .cls-3 {
        fill: #fff;
      }

      .cls-2 {
        fill: #f9b03d;
        stroke: #f9b03d;
        stroke-width: 3.02px;
      }
    </style>
  </defs>
  <g id="Calque_1-2" data-name="Calque 1">
    <g>
      <path class="cls-1" d="M21.22,495.92c-17.98-25.77-20.65-59.64-15.19-90.58,5.45-30.94,18.2-60.03,28.97-89.55,24.84-68.08,39.48-139.87,43.28-212.24"/>
      <path class="cls-3" d="M133.38,97.76c8.39,16.13,5.71,35.04-7.24,44.64-13.71,10.18-34.07,6.33-47.07-8.35-12.86,14.79-33.19,18.85-47,8.81-13.75-10-16.18-30.47-6.2-47.22C8,87.83-1.95,69.78,3.41,53.63c5.74-17.3,26.85-25.86,47.16-19.12.88.29,1.73.6,2.54.94.1-.88.23-1.77.39-2.68C57.27,11.71,74.87-2.77,92.81.45c15.19,2.72,25.75,17.26,26.33,34.45,17.18-.82,32.52,8.54,36.46,23.47,4.12,15.59-5.59,32.03-22.21,39.39Z"/>
      <circle class="cls-2" cx="78.8" cy="78.63" r="27.49"/>
    </g>
  </g>
</svg>