<?xml version="1.0" encoding="UTF-8"?>
<svg id="Calque_2" data-name="Calque 2" xmlns="http://www.w3.org/2000/svg" viewBox="0 0 84.22 485.15">
  <defs>
    <style>
      .cls-1 {
        fill: #e95958;
      }

      .cls-2 {
        fill: #a94040;
      }

      .cls-3 {
        fill: none;
        stroke: #83be55;
        stroke-linecap: round;
        stroke-miterlimit: 10;
        stroke-width: 8.24px;
      }

      .cls-4 {
        fill: #ec6062;
      }

      .cls-5 {
        fill: #db5352;
      }

      .cls-6 {
        fill: #eb5a55;
      }
    </style>
  </defs>
  <g id="Calque_1-2" data-name="Calque 1">
    <g>
      <path class="cls-3" d="M54.77,481.03c-13.48-131.11-17.94-264-13.31-396.28"/>
      <g>
        <path class="cls-2" d="M20.64,9.38c1.43-.24,3.18-.36,4.03.8.65.88.46,2.1.24,3.17-.3,1.47-.64,2.99-1.55,4.18-1.68,2.19-5.05,2.6-7.51,1.36-2.04-1.03-5.09-4.25-4.54-6.81.34-1.57,2.22-1.5,3.5-1.71,1.94-.33,3.89-.66,5.83-.99Z"/>
        <path class="cls-2" d="M76.61,11.87c-.96-1.4-2.22-2.79-3.9-3.05-1.25-.2-2.59.33-3.37,1.32-1.04,1.32-1.01,3.27-.27,4.78s2.09,2.64,3.53,3.52c.96.59,2.16,1.09,3.16.58.66-.34,1.05-1.04,1.29-1.74.4-1.2.47-2.5.2-3.73"/>
        <path class="cls-4" d="M18.61,17.44c-.36-3.5,1.35-6.99,3.9-9.43s5.83-3.95,9.16-5.09C39.78.14,48.57-.68,57.06.57c.97.14,1.98.33,2.76.92s1.26,1.7.82,2.58c-.52,1.04-1.91,1.2-3.08,1.26-13.71.69-27.07,6.84-36.51,16.8-.45.48-.96,1-1.61,1.06s-1.37-.65-1.04-1.22"/>
        <path class="cls-1" d="M65.21,5.48c-3.07-.99-6.38-.8-9.59-.51-8.61.78-17.16,2.2-25.56,4.27-3.79.93-8.03,2.39-9.55,5.99-1.27,3-.16,6.45,1.14,9.44,4.1,9.46,10.03,18.13,17.35,25.39,1.15,1.14,2.39,2.28,3.92,2.83,3.35,1.2,6.94-.74,9.98-2.6,3.93-2.41,7.86-4.83,11.78-7.24,2.94-1.81,5.93-3.65,8.2-6.25,3.59-4.1,4.87-9.83,3.89-15.14-.31-1.69-1.05-3.12-1.82-4.64-1.09-2.14-1.75-4.5-3.11-6.48-1.6-2.33-3.93-4.18-6.63-5.04Z"/>
        <path class="cls-2" d="M33.58,32.34c-2.69-1.12-4.98-3.18-6.38-5.74-1.03-1.87-1.58-3.95-2.12-6.01-.36-1.38-.7-2.95.06-4.17.67-1.07,1.98-1.51,3.19-1.87,1.54-.46,3.08-.93,4.62-1.39,1.71-.52,3.43-1.03,5.16-1.48,2.71-.7,5.47-1.22,8.22-1.74,3.5-.66,7.24-1.31,10.53.06,3.78,1.58,6.06,5.45,7.5,9.28.79,2.1,1.42,4.37.97,6.57-.42,2.03-1.73,3.79-3.32,5.12s-3.44,2.3-5.29,3.25c-2.53,1.31-5.06,2.61-7.59,3.92-1.7.88-3.46,1.77-5.37,1.85-3.37.14-6.27-2.23-8.8-4.47"/>
        <path class="cls-4" d="M29.5,25.71c-.27-1.58-.55-3.2-.23-4.76s1.39-3.09,2.94-3.46c2.04-.49,4.03,1.06,6.12,1.09,2.41.04,4.37-1.89,6.64-2.72,1.94-.7,4.17-.56,6,.38s3.25,2.68,3.8,4.66c.77,2.76-.12,5.77-1.72,8.15s-3.86,4.22-6.1,6c-1.1.87-2.24,1.75-3.57,2.22s-2.9.47-4.05-.35c-1.06-.76-1.57-2.04-2.19-3.19-1.5-2.79-3.94-5.07-6.82-6.4"/>
        <path class="cls-5" d="M41.75,38.66c-1.19-2.71.93-5.9,3.61-7.16s5.76-1.21,8.69-1.61c10.03-1.37,19.04-8.63,22.5-18.14,5.28,9.05,6.19,19.9,6.98,30.34.48,6.28.95,12.59.51,18.87-.44,6.25-1.83,12.56-5.17,17.86-1.89,3.01-4.39,5.64-7.3,7.68-7.04,4.95-15.93,6.25-24.46,7.41"/>
        <path class="cls-6" d="M20.73,16.84c3.02,2.6,6.04,5.2,9.05,7.8,6.42,5.53,12.85,11.08,18.77,17.15,1.71,1.76,3.38,3.57,4.87,5.53,7.8,10.29,9.77,24.71,5.02,36.71-1.39,3.52-3.4,6.92-6.43,9.19-4.57,3.43-10.68,3.78-16.39,3.99-8.74.33-18.19.47-25.35-4.56C4.27,88.44.96,81.14.2,73.85s.75-14.64,2.78-21.68,4.59-13.95,6.02-21.15c1.18-5.94.67-11.69,1.19-17.62s8.36,1.57,10.53,3.44Z"/>
      </g>
    </g>
  </g>
</svg>